<svg width="22" height="20" viewBox="0 0 22 20" fill="none" xmlns="http://www.w3.org/2000/svg">
<path d="M9.5014 9.99979H4.0014M3.91675 10.2913L1.58183 17.266C1.39839 17.8139 1.30668 18.0879 1.3725 18.2566C1.42966 18.4031 1.55242 18.5142 1.7039 18.5565C1.87834 18.6052 2.1418 18.4866 2.66874 18.2495L19.3802 10.7293C19.8945 10.4979 20.1517 10.3822 20.2312 10.2214C20.3002 10.0817 20.3002 9.91785 20.2312 9.77819C20.1517 9.61743 19.8945 9.5017 19.3802 9.27026L2.66291 1.74751C2.13757 1.51111 1.87489 1.39291 1.70063 1.4414C1.54929 1.48351 1.42654 1.59429 1.36918 1.74054C1.30314 1.90893 1.39388 2.18231 1.57535 2.72906L3.9174 9.78532C3.94857 9.87923 3.96415 9.92618 3.9703 9.9742C3.97576 10.0168 3.97571 10.0599 3.97014 10.1025C3.96386 10.1506 3.94816 10.1975 3.91675 10.2913Z" stroke="white" stroke-width="2" stroke-linecap="round" stroke-linejoin="round"/>
</svg>
